<?xml version="1.0" standalone="no"?>
<!DOCTYPE svg PUBLIC "-//W3C//DTD SVG 20010904//EN"
 "http://www.w3.org/TR/2001/REC-SVG-20010904/DTD/svg10.dtd">
<svg version="1.0" xmlns="http://www.w3.org/2000/svg"
 width="82.000000pt" height="82.000000pt" viewBox="0 0 82.000000 82.000000"
 preserveAspectRatio="xMidYMid meet">
<metadata>
Created by potrace 1.11, written by Peter Selinger 2001-2013
</metadata>
<g transform="translate(0.000000,82.000000) scale(0.100000,-0.100000)"
fill="#000000" stroke="none">
<path d="M0 410 l0 -410 410 0 410 0 0 125 0 125 -312 2 -313 3 65 32 c36 17
112 54 170 81 234 110 327 154 358 170 l32 17 0 132 0 133 -410 0 -410 0 0
-410z m325 150 c17 -19 18 -19 34 1 14 17 26 20 81 17 l65 -3 3 -39 c4 -46
-13 -91 -42 -111 -25 -18 -117 -20 -134 -3 -14 14 -16 57 -3 78 6 8 7 18 4 23
-9 15 -23 -15 -23 -50 0 -43 -30 -63 -95 -63 -61 0 -78 10 -73 41 4 28 37 38
50 15 12 -21 58 -21 58 -1 0 8 -7 15 -15 15 -25 0 -17 30 13 42 l27 12 -25 4
c-13 2 -26 -1 -28 -7 -4 -13 -48 -15 -56 -3 -3 5 2 18 10 30 21 31 122 32 149
2z m314 6 c19 -23 -3 -56 -38 -56 -37 0 -47 24 -21 50 24 24 43 25 59 6z"/>
<path d="M390 514 c-17 -45 -13 -64 15 -64 26 0 45 30 45 71 0 31 -48 26 -60
-7z"/>
<path d="M600 539 c0 -5 5 -7 10 -4 6 3 10 8 10 11 0 2 -4 4 -10 4 -5 0 -10
-5 -10 -11z"/>
<path d="M707 353 c-27 -7 -14 -28 16 -28 15 1 27 -3 27 -7 0 -4 -11 -8 -25
-8 -14 0 -25 -4 -25 -10 0 -5 17 -8 38 -7 32 2 37 5 37 27 0 33 -24 44 -68 33z
m40 -9 c-3 -3 -12 -4 -19 -1 -8 3 -5 6 6 6 11 1 17 -2 13 -5z"/>
<path d="M802 325 c-7 -14 -8 -27 -2 -30 5 -3 12 6 16 20 9 35 0 41 -14 10z"/>
</g>
</svg>
